<?xml version="1.0" encoding="UTF-8" standalone="no"?>
<svg
   version="1.1"
   x="0px"
   y="0px"
   viewBox="0 0 74.484138 74.011009"
   enable-background="new 0 0 90 90"
   xml:space="preserve"
   id="svg7"
   sodipodi:docname="handmade.svg"
   inkscape:version="1.4.3 (0d15f75042, 2025-12-25)"
   width="74.484138"
   height="74.011009"
   xmlns:inkscape="http://www.inkscape.org/namespaces/inkscape"
   xmlns:sodipodi="http://sodipodi.sourceforge.net/DTD/sodipodi-0.dtd"
   xmlns="http://www.w3.org/2000/svg"
   xmlns:svg="http://www.w3.org/2000/svg"><defs
     id="defs7" /><sodipodi:namedview
     id="namedview7"
     pagecolor="#ffffff"
     bordercolor="#666666"
     borderopacity="1.0"
     inkscape:showpageshadow="2"
     inkscape:pageopacity="0.0"
     inkscape:pagecheckerboard="0"
     inkscape:deskcolor="#d1d1d1"
     inkscape:zoom="7.0311111"
     inkscape:cx="37.049621"
     inkscape:cy="48.356511"
     inkscape:window-width="1920"
     inkscape:window-height="1037"
     inkscape:window-x="0"
     inkscape:window-y="0"
     inkscape:window-maximized="1"
     inkscape:current-layer="svg7" /><path
     fill-rule="evenodd"
     clip-rule="evenodd"
     d="m 73.254695,17.542491 c -1.629,-1.24 -4.812,-0.748 -7.604,5.693 -1.317,3.043 -2.181,5.016 -3.905,7.5 -2.073,2.996 -2.365,5.234 -0.871,6.668 1.052,1.014 2.079,0.691 2.558,-0.059 0.463,-0.729 0.745,-0.838 1.787,-1.994 0.724,-0.797 0.579,-1.244 -0.104,-1.734 -1.14,-0.814 -1.292,-1.643 0.364,-1.041 0.729,0.266 1.496,0.363 1.959,-1.068 0.338,-1.027 0.797,-1.547 1.609,-2.266 0.77,-0.688 0.625,-1.309 -0.083,-1.809 -0.417,-0.297 -0.636,-0.5 -1.021,-0.936 -0.38,-0.438 -0.749,-0.961 -0.338,-1.656 1.568,1.275 2.713,2.156 4.885,0 2.651,-3.573 2.395,-6.058 0.764,-7.298 z"
     id="path1"
     style="fill:#ce5769;fill-opacity:1" /><path
     fill-rule="evenodd"
     clip-rule="evenodd"
     d="m 57.797695,3.6264907 c -2.401,-0.771 -5.896,1.1 -6.506,9.7190003 -0.286,4.072 -0.479,6.719 -1.463,10.307 -1.187,4.322 -0.609,7.041 1.713,8.1 1.636,0.74 2.699,-0.053 2.943,-1.119 0.24,-1.033 0.521,-1.277 1.262,-3.049 0.509,-1.219 -0.032,-1.41 -1.052,-1.547 -0.631,-0.082 -0.98,-0.182 -1.652,-0.441 -0.667,-0.26 -1.364,-0.621 -1.317,-1.609 1.021,0.207 2.421,0.316 3.188,0.27 0.952,-0.057 1.885,-0.18 1.838,-2.039 -0.032,-1.328 0.296,-2.121 0.943,-3.289 0.615,-1.113 0.192,-1.77 -0.833,-2.063 -0.609,-0.172 -0.942,-0.322 -1.568,-0.672 -0.625,-0.348 -1.265,-0.805 -1.073,-1.781 2.338,0.84 4.032,1.391 5.672,-2 1.613,-5.2280003 0.301,-8.0150003 -2.095,-8.7870003 z"
     id="path2"
     style="fill:#ce5769;fill-opacity:1" /><path
     fill-rule="evenodd"
     clip-rule="evenodd"
     d="m 40.088695,0.01749067 c -2.656,-0.266 -5.864,2.45300003 -4.572,11.52500033 0.609,4.287 1,7.068 0.775,11.012 -0.265,4.744 0.943,7.443 3.583,8.016 1.866,0.404 2.787,-0.652 2.809,-1.814 0.014,-1.129 0.254,-1.441 0.625,-3.441 0.26,-1.375 -0.35,-1.459 -1.439,-1.369 -0.672,0.053 -1.057,0.025 -1.812,-0.094 -0.745,-0.115 -1.552,-0.338 -1.724,-1.377 1.104,-0.008 2.584,-0.207 3.369,-0.426 0.975,-0.27 1.912,-0.609 1.448,-2.527 -0.328,-1.369 -0.167,-2.26 0.24,-3.617 0.391,-1.293 -0.188,-1.883 -1.317,-1.953 -0.673,-0.043 -1.052,-0.121 -1.782,-0.352 -0.718,-0.217 -1.483,-0.551 -1.505,-1.602 2.614,0.348 4.489,0.539 5.432,-3.3400003 0.511,-5.782 -1.468,-8.37600003 -4.13,-8.64100003 z"
     id="path3"
     style="fill:#ce5769;fill-opacity:1" /><path
     d="m 37.713695,46.013491 c 1.371,0.023 2.558,0.691 3.578,1.904 0.365,0.443 1.042,0.443 1.411,0 1.016,-1.213 2.209,-1.881 3.573,-1.904 1.349,-0.033 2.886,0.66 3.849,1.816 0.916,1.094 1.479,2.678 1.449,4.23 -0.027,1.551 -0.599,3.047 -1.954,4.172 l -7.625,6.342 -7.625,-6.342 c -1.353,-1.125 -1.926,-2.621 -1.952,-4.172 -0.032,-1.553 0.53,-3.137 1.442,-4.23 0.969,-1.156 2.504,-1.849 3.854,-1.816 z m -0.525,-11.24 c -8.75,0.912 -11.709,4.65 -11.38,9.615 0.109,1.729 -0.204,3.477 -1.074,5.045 -1.146,2.053 -3.24,3.787 -6.584,4.73 -2.353,0.66 -2.953,4.244 -1.391,7.145 3.271,6.063 12.532,15.152 23.219,12.084 2.016,-0.553 2.772,-0.541 4.922,0.047 7.359,2.01 12.318,-1.574 12.85,-6.193 l 2.208,-19.109 c 0.604,-5.248 -0.796,-7.473 -3.308,-9.186 -5.12,-3.485 -11.494,-5.007 -19.462,-4.178 z"
     id="path4"
     style="fill:#ce5769;fill-opacity:1" /><path
     fill-rule="evenodd"
     clip-rule="evenodd"
     d="m 4.890695,32.720491 c -1.188,-0.098 -2.271,0.219 -3.156,0.807 -2.36499995,1.563 -2.61999995,4.729 1.183,9.709 2.333,2.422 4.504,4.566 6.061,7.125 1.772,2.504 5.136,2.699 6.693,1.338 0.833,-0.729 1.229,-2.541 0.724,-4.201 -0.584,-1.902 -1.417,-3.434 -3.432,-0.1 -0.688,1.139 -2.101,0.529 -1.443,-0.219 1.765,-2.01 2.124,-6.143 -0.262,-9.746 -2.117,-3.201 -4.389,-4.541 -6.368,-4.713 z"
     id="path5"
     style="fill:#ce5769;fill-opacity:1" /><path
     fill-rule="evenodd"
     clip-rule="evenodd"
     d="m 21.250695,3.4234907 c -2.715,0.391 -5.234,3.885 -1.72,12.5940003 1.663,4.119 2.734,6.791 3.485,10.771 0.901,4.791 2.765,7.172 5.536,7.094 1.953,-0.053 2.614,-1.334 2.344,-2.494 -0.26,-1.127 -0.099,-1.496 -0.219,-3.58 -0.084,-1.432 -0.708,-1.363 -1.771,-1.01 -0.656,0.219 -1.047,0.291 -1.823,0.354 -0.772,0.068 -1.631,0.047 -2.053,-0.943 1.094,-0.281 2.516,-0.844 3.245,-1.254 0.901,-0.51 1.751,-1.078 0.817,-2.875 -0.662,-1.281 -0.724,-2.203 -0.65,-3.656 0.073,-1.381 -0.651,-1.828 -1.792,-1.621 -0.676,0.125 -1.077,0.137 -1.859,0.096 -0.77,-0.047 -1.614,-0.189 -1.896,-1.229 2.692,-0.299 4.604,-0.563 4.588,-4.662 -0.909,-5.8820003 -3.518,-7.9760003 -6.232,-7.5850003 z"
     id="path6"
     style="fill:#ce5769;fill-opacity:1" /></svg>
